<?xml version="1.0" encoding="UTF-8" standalone="no"?>
<!-- Created with Inkscape (http://www.inkscape.org/) -->

<svg
   width="37.041664mm"
   height="38.008919mm"
   viewBox="0 0 37.041664 38.008919"
   version="1.1"
   id="svg5"
   xmlns:xlink="http://www.w3.org/1999/xlink"
   xmlns="http://www.w3.org/2000/svg"
   xmlns:svg="http://www.w3.org/2000/svg">
  <defs
     id="defs2">
    <linearGradient
       id="linearGradient2859">
      <stop
         style="stop-color:#8c5ce5;stop-opacity:1"
         offset="0"
         id="stop2855" />
      <stop
         style="stop-color:#834fe3;stop-opacity:1"
         offset="1"
         id="stop2857" />
    </linearGradient>
    <linearGradient
       xlink:href="#linearGradient2859"
       id="linearGradient2861"
       x1="83.303352"
       y1="52.704872"
       x2="83.303352"
       y2="76.563599"
       gradientUnits="userSpaceOnUse" />
  </defs>
  <g
     id="layer2"
     transform="translate(-65.24081,-46.706493)">
    <ellipse
       style="fill:#542aa2;fill-opacity:1;stroke:#000000;stroke-width:0;stroke-miterlimit:4;stroke-dasharray:none;stroke-opacity:1"
       id="circle4311"
       cx="83.761642"
       cy="65.756493"
       rx="18.520832"
       ry="18.958918" />
    <circle
       style="fill:url(#linearGradient2861);fill-opacity:1;stroke:#000000;stroke-width:0;stroke-miterlimit:4;stroke-dasharray:none;stroke-opacity:1"
       id="path2743"
       cx="83.761642"
       cy="65.227325"
       r="18.520832" />
    <circle
       style="fill:#c2c2c2;fill-opacity:1;stroke:#000000;stroke-width:0;stroke-miterlimit:4;stroke-dasharray:none;stroke-opacity:1"
       id="path3995"
       cx="-65.209991"
       cy="83.676918"
       transform="rotate(-90)"
       r="15.874999" />
    <ellipse
       style="fill:#ffffff;fill-opacity:1;stroke:#000000;stroke-width:0;stroke-miterlimit:4;stroke-dasharray:none;stroke-opacity:1"
       id="circle5176"
       cx="-65.871452"
       cy="83.676918"
       transform="rotate(-90)"
       rx="15.213541"
       ry="15.478125" />
    <path
       fill="#3b4262"
       d="m 88.43505,57.80234 c 0.85434,-0.529167 1.673225,-0.643732 2.305579,-0.322527 1.417902,0.719666 1.212586,3.398573 0.632354,4.5593 -0.327554,0.655373 -0.90805,1.134268 -1.726935,1.42531 -0.3175,1.005152 -0.763058,1.869017 -1.331913,2.583392 a 2.0912667,2.0912667 0 0 0 1.343819,0.486039 h 0.02381 l 0.799041,-0.788987 c 0.201348,-0.198438 0.52758,-0.198702 0.728663,0 0.201083,0.198437 0.201083,0.5207 0,0.719137 l -0.07064,0.06985 h 0.160867 c 0.284427,0 0.515144,0.227807 0.515144,0.508794 0,0.280723 -0.230717,0.508529 -0.515144,0.508529 h -0.160867 l 0.07064,0.06985 c 0.201083,0.198438 0.201083,0.5207 0,0.719402 -0.100542,0.09922 -0.232304,0.148961 -0.364067,0.148961 -0.132027,0 -0.263789,-0.04974 -0.364331,-0.148961 l -0.799571,-0.789252 h -0.02381 a 3.1281687,3.1281687 0 0 1 -2.043642,-0.755914 c -0.109802,0.09975 -0.223044,0.195262 -0.339725,0.286543 -0.987425,0.772584 -2.194454,1.221582 -3.605477,1.344613 a 3.1961667,3.1961667 0 0 1 0.09075,1.680633 l -0.0053,0.02381 0.615157,0.968375 a 0.5286375,0.5286375 0 0 1 -0.15584,0.725223 0.51223333,0.51223333 0 0 1 -0.279665,0.08361 0.51673125,0.51673125 0 0 1 -0.436827,-0.2413 l -0.0545,-0.08572 -0.0344,0.160073 a 0.52017083,0.52017083 0 0 1 -0.506148,0.413279 0.5159375,0.5159375 0 0 1 -0.11086,-0.01217 0.52493333,0.52493333 0 0 1 -0.396346,-0.624416 l 0.0344,-0.160073 -0.08467,0.0553 a 0.51487917,0.51487917 0 0 1 -0.716756,-0.157957 0.5286375,0.5286375 0 0 1 0.156104,-0.724958 l 0.956998,-0.622565 0.0053,-0.02381 A 2.1359812,2.1359812 0 0 0 82.557594,68.45659 11.84619,11.84619 0 0 1 81.288388,68.350757 c -1.239309,-0.167746 -1.942307,0.379148 -2.128309,0.550598 -1.459971,1.347523 -1.742546,3.728508 -1.745191,3.752585 a 0.52308125,0.52308125 0 0 1 -0.518584,0.464873 0.52122917,0.52122917 0 0 1 -0.431271,-0.229393 c -0.02302,-0.0344 -0.572558,-0.855663 -0.813593,-2.014803 -0.32729,-1.57427 0.06297,-3.018102 1.128712,-4.175918 a 5.4774042,5.4774042 0 0 1 2.311929,-1.485636 l -0.107685,0.02805 a 2.1140208,2.1140208 0 0 0 -0.892969,-0.197644 h -0.02381 L 77.2654,65.832721 a 0.51990625,0.51990625 0 0 1 -0.365654,0.148961 c -0.132292,0 -0.264583,-0.04974 -0.365654,-0.148961 a 0.50270833,0.50270833 0 0 1 0,-0.719402 l 0.07091,-0.06985 h -0.161396 c -0.28575,0 -0.516996,-0.227541 -0.516996,-0.508529 0,-0.280987 0.231511,-0.508529 0.516996,-0.508529 h 0.161396 l -0.07091,-0.06985 a 0.50270833,0.50270833 0 0 1 0,-0.719667 c 0.201877,-0.198437 0.529166,-0.198437 0.731308,0 l 0.802217,0.789252 h 0.02381 a 3.1406042,3.1406042 0 0 1 2.291556,0.985838 l -0.05741,-0.059 a 6.0626625,6.0626625 0 0 1 1.41605,0.02513 c 1.308629,0.177271 2.378604,-0.0048 3.204898,-0.542925 A 3.2318854,3.2318854 0 0 1 84.2295,62.397898 v -0.02434 l -0.790577,-0.816516 a 0.5381625,0.5381625 0 0 1 0,-0.744009 0.49873958,0.49873958 0 0 1 0.72099,0 l 0.07011,0.07223 v -0.164307 c 0,-0.290777 0.228071,-0.526256 0.509588,-0.526256 0.281516,0 0.509852,0.235479 0.509852,0.526256 v 0.164042 l 0.07011,-0.07197 a 0.49873958,0.49873958 0 0 1 0.72099,0 c 0.303212,0.313003 0.08467,0.656961 0,0.744009 l -0.791104,0.816504 v 0.02408 c 0,0.496888 0.16801,0.971815 0.468577,1.348846 0.373591,-0.446088 0.667279,-1.007533 0.879739,-1.68275 -0.15531,-0.429948 -0.396875,-1.448065 0.219075,-2.602706 0.322792,-0.604573 0.942975,-1.240102 1.618457,-1.658673 z"
       id="path10899"
       style="stroke-width:0.264583" />
  </g>
</svg>
